<svg xmlns="http://www.w3.org/2000/svg" xmlns:xlink="http://www.w3.org/1999/xlink" width="1080" zoomAndPan="magnify" viewBox="0 0 810 809.999993" height="1080" preserveAspectRatio="xMidYMid meet" version="1.2"><g id="76592c7036"><path style=" stroke:none;fill-rule:nonzero;fill:#70a1ff;fill-opacity:1;" d="M 405 210.792969 L 501.179688 130.644531 L 627.097656 130.644531 L 627.097656 0 L 313.550781 0 L 313.550781 130.644531 L 405 130.644531 Z M 339.675781 104.515625 L 339.675781 26.128906 L 600.96875 26.128906 L 600.96875 104.515625 L 491.726562 104.515625 L 431.128906 155.011719 L 431.128906 104.515625 Z M 339.675781 104.515625 "/><path style=" stroke:none;fill-rule:nonzero;fill:#70a1ff;fill-opacity:1;" d="M 365.804688 52.257812 L 391.933594 52.257812 L 391.933594 78.386719 L 365.804688 78.386719 Z M 365.804688 52.257812 "/><path style=" stroke:none;fill-rule:nonzero;fill:#70a1ff;fill-opacity:1;" d="M 418.0625 52.257812 L 522.578125 52.257812 L 522.578125 78.386719 L 418.0625 78.386719 Z M 418.0625 52.257812 "/><path style=" stroke:none;fill-rule:nonzero;fill:#70a1ff;fill-opacity:1;" d="M 548.710938 52.257812 L 574.839844 52.257812 L 574.839844 78.386719 L 548.710938 78.386719 Z M 548.710938 52.257812 "/><path style=" stroke:none;fill-rule:nonzero;fill:#70a1ff;fill-opacity:1;" d="M 665.046875 783.871094 L 654.480469 678.109375 C 698.101562 671.214844 731.613281 633.441406 731.613281 587.902344 L 731.613281 418.0625 L 679.355469 418.0625 L 679.355469 400.011719 C 679.355469 382.25 669.59375 366.300781 653.902344 358.125 C 669.503906 343.789062 679.355469 323.296875 679.355469 300.484375 L 679.355469 274.351562 C 679.355469 231.121094 644.199219 195.964844 600.96875 195.964844 C 557.734375 195.964844 522.578125 231.121094 522.578125 274.351562 L 522.578125 300.484375 C 522.578125 334.304688 544.148438 363.101562 574.226562 374.070312 L 504.109375 444.191406 L 430.839844 444.191406 C 429.382812 422.414062 414.421875 403.429688 393.230469 397.371094 L 339.675781 382.085938 L 339.675781 358.75 C 355.667969 344.390625 365.804688 323.632812 365.804688 300.484375 L 365.804688 274.351562 C 365.804688 231.121094 330.648438 195.964844 287.417969 195.964844 C 244.1875 195.964844 209.03125 231.121094 209.03125 274.351562 L 209.03125 300.484375 C 209.03125 323.621094 219.167969 344.378906 235.160156 358.75 L 235.160156 382.097656 L 181.609375 397.382812 C 159.292969 403.742188 143.710938 424.410156 143.710938 447.628906 L 143.710938 496.449219 L 91.453125 496.449219 L 91.453125 574.835938 L 117.582031 574.835938 L 117.582031 783.871094 L 0 783.871094 L 0 810 L 810 810 L 810 783.871094 Z M 548.710938 574.835938 L 548.710938 514.925781 L 641.28125 422.351562 C 647.976562 415.65625 651.957031 406.671875 652.851562 397.292969 C 652.964844 398.207031 653.226562 399.066406 653.226562 400.011719 L 653.226562 561.773438 C 653.226562 583.378906 635.640625 600.96875 614.03125 600.96875 L 509.515625 600.96875 L 509.515625 574.835938 Z M 509.515625 679.351562 L 576.082031 679.351562 L 586.53125 783.871094 L 509.515625 783.871094 Z M 602.339844 679.351562 L 628.339844 679.351562 L 638.789062 783.871094 L 612.789062 783.871094 Z M 679.355469 561.773438 L 679.355469 444.191406 L 705.484375 444.191406 L 705.484375 587.902344 C 705.484375 623.917969 676.179688 653.222656 640.160156 653.222656 L 509.515625 653.222656 L 509.515625 627.097656 L 614.03125 627.097656 C 650.050781 627.097656 679.355469 597.789062 679.355469 561.773438 Z M 548.710938 300.484375 L 548.710938 274.351562 C 548.710938 245.535156 572.148438 222.097656 600.96875 222.097656 C 629.789062 222.097656 653.226562 245.535156 653.226562 274.351562 L 653.226562 300.484375 C 653.226562 329.304688 629.789062 352.742188 600.96875 352.742188 C 572.148438 352.742188 548.710938 329.304688 548.710938 300.484375 Z M 514.925781 470.324219 L 602.089844 383.15625 C 604.820312 380.425781 608.597656 378.871094 612.449219 378.871094 C 620.527344 378.871094 627.097656 385.441406 627.097656 393.515625 C 627.097656 397.371094 625.539062 401.144531 622.808594 403.875 L 530.234375 496.449219 L 391.933594 496.449219 C 384.726562 496.449219 378.871094 490.59375 378.871094 483.386719 C 378.871094 476.175781 384.726562 470.324219 391.933594 470.324219 Z M 235.160156 274.351562 C 235.160156 245.535156 258.597656 222.097656 287.417969 222.097656 C 316.238281 222.097656 339.675781 245.535156 339.675781 274.351562 L 339.675781 300.484375 C 339.675781 329.304688 316.238281 352.742188 287.417969 352.742188 C 258.597656 352.742188 235.160156 329.304688 235.160156 300.484375 Z M 287.417969 378.871094 C 296.589844 378.871094 305.359375 377.199219 313.550781 374.296875 L 313.550781 388.332031 C 310.308594 393.332031 301.304688 404.996094 287.417969 404.996094 C 273.53125 404.996094 264.53125 393.332031 261.289062 388.332031 L 261.289062 374.296875 C 269.480469 377.199219 278.246094 378.871094 287.417969 378.871094 Z M 169.839844 447.628906 C 169.839844 436.015625 177.640625 425.695312 188.785156 422.503906 L 242.605469 407.128906 C 250.183594 417.003906 264.933594 431.128906 287.417969 431.128906 C 309.90625 431.128906 324.652344 417.003906 332.234375 407.117188 L 386.054688 422.488281 C 396.0625 425.355469 403.042969 434.058594 404.4375 444.179688 L 391.933594 444.179688 C 370.328125 444.179688 352.742188 461.765625 352.742188 483.375 C 352.742188 487.972656 353.679688 492.335938 355.148438 496.4375 L 169.839844 496.4375 Z M 117.582031 522.578125 L 522.578125 522.578125 L 522.578125 548.707031 L 117.582031 548.707031 Z M 143.710938 627.097656 L 182.902344 627.097656 L 182.902344 600.96875 L 143.710938 600.96875 L 143.710938 574.835938 L 483.386719 574.835938 L 483.386719 600.96875 L 209.03125 600.96875 L 209.03125 627.097656 L 483.386719 627.097656 L 483.386719 783.871094 L 452.269531 783.871094 L 426.140625 731.613281 L 200.957031 731.613281 L 174.828125 783.871094 L 143.710938 783.871094 Z M 423.054688 783.871094 L 204.042969 783.871094 L 217.109375 757.742188 L 409.988281 757.742188 Z M 423.054688 783.871094 "/></g></svg>