<svg xmlns="http://www.w3.org/2000/svg" xmlns:xlink="http://www.w3.org/1999/xlink" width="1080" zoomAndPan="magnify" viewBox="0 0 810 809.999993" height="1080" preserveAspectRatio="xMidYMid meet" version="1.2"><g id="e55c652a0b"><path style=" stroke:none;fill-rule:nonzero;fill:#70a1ff;fill-opacity:1;" d="M 797.75 187.085938 C 797.691406 186.742188 797.703125 186.382812 797.613281 186.046875 C 797.371094 185.125 797.007812 184.238281 796.535156 183.410156 C 796.375 183.125 796.136719 182.894531 795.945312 182.628906 C 795.605469 182.097656 795.21875 181.59375 794.792969 181.125 C 794.53125 180.859375 794.203125 180.675781 793.917969 180.433594 C 793.5 180.042969 793.042969 179.6875 792.566406 179.371094 L 792.484375 179.339844 L 792.414062 179.289062 L 699.890625 126.277344 C 698.214844 125.320312 696.316406 124.8125 694.382812 124.8125 C 692.453125 124.8125 690.554688 125.320312 688.878906 126.277344 L 596.304688 179.28125 L 596.234375 179.332031 L 596.152344 179.363281 C 595.671875 179.683594 595.21875 180.042969 594.792969 180.433594 C 594.507812 180.667969 594.160156 180.859375 593.925781 181.117188 C 593.496094 181.589844 593.105469 182.101562 592.761719 182.644531 C 592.578125 182.910156 592.34375 183.128906 592.183594 183.410156 C 591.714844 184.238281 591.347656 185.125 591.105469 186.046875 C 591.015625 186.371094 591.027344 186.71875 590.96875 187.046875 C 590.839844 187.652344 590.757812 188.269531 590.730469 188.890625 L 590.730469 211.449219 L 508.394531 159.886719 C 508.515625 159.332031 508.589844 158.769531 508.625 158.203125 L 508.625 65.648438 C 508.59375 65.039062 508.515625 64.433594 508.382812 63.839844 C 508.324219 63.496094 508.335938 63.136719 508.25 62.800781 C 508.003906 61.878906 507.640625 60.996094 507.167969 60.167969 C 506.945312 59.839844 506.707031 59.523438 506.453125 59.21875 C 506.148438 58.75 505.804688 58.300781 505.433594 57.882812 C 505.101562 57.589844 504.75 57.316406 504.382812 57.0625 C 504.007812 56.722656 503.613281 56.414062 503.195312 56.132812 L 503.128906 56.132812 L 503.085938 56.035156 L 410.507812 3.03125 C 408.828125 2.070312 406.933594 1.566406 405 1.566406 C 403.066406 1.566406 401.171875 2.070312 399.492188 3.03125 L 306.914062 56.035156 L 306.839844 56.09375 L 306.773438 56.09375 C 306.355469 56.378906 305.957031 56.691406 305.578125 57.03125 C 305.214844 57.28125 304.867188 57.554688 304.535156 57.847656 C 304.15625 58.269531 303.8125 58.722656 303.503906 59.199219 C 303.253906 59.496094 303.019531 59.808594 302.800781 60.128906 C 302.328125 60.960938 301.964844 61.847656 301.71875 62.769531 C 301.628906 63.09375 301.640625 63.441406 301.585938 63.769531 C 301.453125 64.375 301.371094 64.992188 301.34375 65.609375 L 301.34375 158.203125 C 301.375 158.773438 301.453125 159.335938 301.574219 159.894531 L 219.257812 211.449219 L 219.257812 188.894531 C 219.226562 188.285156 219.148438 187.679688 219.015625 187.085938 C 218.960938 186.742188 218.972656 186.382812 218.882812 186.046875 C 218.636719 185.125 218.273438 184.238281 217.800781 183.410156 C 217.644531 183.125 217.402344 182.894531 217.214844 182.628906 C 216.875 182.097656 216.488281 181.59375 216.0625 181.125 C 215.800781 180.859375 215.472656 180.675781 215.1875 180.433594 C 214.765625 180.042969 214.3125 179.6875 213.832031 179.371094 L 213.75 179.339844 L 213.683594 179.289062 L 121.144531 126.277344 C 119.46875 125.320312 117.570312 124.8125 115.640625 124.8125 C 113.707031 124.8125 111.8125 125.320312 110.132812 126.277344 L 17.578125 179.28125 L 17.507812 179.332031 L 17.425781 179.363281 C 16.945312 179.683594 16.492188 180.042969 16.066406 180.433594 C 15.78125 180.667969 15.433594 180.859375 15.199219 181.117188 C 14.769531 181.589844 14.378906 182.101562 14.035156 182.644531 C 13.851562 182.910156 13.617188 183.128906 13.460938 183.410156 C 12.988281 184.238281 12.625 185.125 12.378906 186.046875 C 12.289062 186.371094 12.300781 186.71875 12.246094 187.046875 C 12.113281 187.652344 12.03125 188.269531 12.003906 188.890625 L 12.003906 281.445312 C 12.003906 283.433594 12.539062 285.382812 13.554688 287.09375 C 14.566406 288.804688 16.023438 290.210938 17.769531 291.164062 L 104.558594 338.554688 L 104.558594 465.355469 L 17.578125 515.171875 L 17.507812 515.222656 L 17.425781 515.253906 C 16.945312 515.574219 16.492188 515.933594 16.066406 516.324219 C 15.78125 516.558594 15.433594 516.75 15.199219 517.007812 C 14.769531 517.480469 14.378906 517.992188 14.035156 518.535156 C 13.851562 518.800781 13.617188 519.019531 13.460938 519.300781 C 12.988281 520.128906 12.625 521.015625 12.378906 521.9375 C 12.289062 522.257812 12.300781 522.609375 12.246094 522.9375 C 12.113281 523.542969 12.03125 524.160156 12.003906 524.777344 L 12.003906 617.332031 C 12.003906 619.324219 12.542969 621.277344 13.558594 622.988281 C 14.574219 624.699219 16.035156 626.101562 17.78125 627.054688 L 110.332031 677.570312 C 110.851562 677.824219 111.390625 678.035156 111.945312 678.203125 C 112.242188 678.3125 112.519531 678.46875 112.824219 678.546875 C 114.664062 679.046875 116.609375 679.046875 118.449219 678.546875 C 118.753906 678.464844 119.03125 678.304688 119.328125 678.203125 C 119.882812 678.035156 120.421875 677.824219 120.941406 677.570312 L 199.527344 634.671875 L 301.410156 702.503906 L 301.410156 748.402344 C 301.410156 750.390625 301.945312 752.34375 302.957031 754.054688 C 303.972656 755.765625 305.429688 757.167969 307.175781 758.121094 L 399.722656 808.640625 C 400.242188 808.890625 400.78125 809.105469 401.335938 809.273438 C 401.632812 809.378906 401.910156 809.539062 402.214844 809.613281 C 404.054688 810.117188 406 810.117188 407.839844 809.613281 C 408.144531 809.53125 408.425781 809.375 408.71875 809.273438 C 409.273438 809.105469 409.8125 808.890625 410.332031 808.640625 L 502.859375 758.109375 C 504.605469 757.15625 506.058594 755.75 507.074219 754.042969 C 508.089844 752.328125 508.625 750.378906 508.625 748.390625 L 508.625 702.492188 L 610.503906 634.660156 L 689.089844 677.558594 C 689.609375 677.8125 690.148438 678.023438 690.699219 678.191406 C 691 678.300781 691.277344 678.457031 691.582031 678.53125 C 693.421875 679.035156 695.363281 679.035156 697.207031 678.53125 C 697.511719 678.453125 697.789062 678.292969 698.085938 678.191406 C 698.640625 678.023438 699.179688 677.8125 699.699219 677.558594 L 792.21875 627.054688 C 793.960938 626.101562 795.421875 624.695312 796.433594 622.984375 C 797.445312 621.273438 797.984375 619.320312 797.984375 617.332031 L 797.984375 524.785156 C 797.953125 524.175781 797.871094 523.570312 797.742188 522.976562 C 797.6875 522.632812 797.699219 522.273438 797.609375 521.9375 C 797.363281 521.015625 797 520.128906 796.527344 519.300781 C 796.371094 519.011719 796.128906 518.785156 795.9375 518.523438 C 795.597656 517.988281 795.214844 517.484375 794.785156 517.015625 C 794.527344 516.75 794.199219 516.566406 793.914062 516.324219 C 793.488281 515.9375 793.039062 515.578125 792.558594 515.261719 L 792.476562 515.230469 L 792.40625 515.179688 L 705.425781 465.367188 L 705.425781 338.554688 L 792.210938 291.183594 C 793.957031 290.230469 795.410156 288.824219 796.425781 287.113281 C 797.441406 285.402344 797.976562 283.453125 797.976562 281.460938 L 797.976562 188.894531 C 797.953125 188.285156 797.875 187.679688 797.75 187.085938 Z M 472.027344 657.167969 L 405 693.757812 L 337.972656 657.167969 L 335.136719 655.621094 L 405 615.613281 L 474.863281 655.59375 Z M 197.109375 274.875 L 126.707031 313.300781 L 126.707031 245.988281 L 197.109375 207.5625 Z M 115.632812 484.539062 L 185.496094 524.546875 L 182.660156 526.09375 L 115.632812 562.683594 L 48.605469 526.09375 L 45.769531 524.546875 Z M 207.253906 511.484375 L 126.707031 465.351562 L 126.707031 338.554688 L 200.078125 298.503906 L 301.375 364.417969 L 301.375 445.214844 Z M 323.527344 151.628906 L 323.527344 84.316406 L 393.925781 122.765625 L 393.925781 190.058594 Z M 486.472656 151.628906 L 416.074219 190.058594 L 416.074219 122.765625 L 486.472656 84.328125 Z M 405 318.164062 L 474.863281 358.171875 L 472.027344 359.722656 L 405 396.3125 L 337.972656 359.722656 L 335.136719 358.171875 Z M 323.527344 377.074219 L 393.925781 415.503906 L 393.925781 482.835938 L 323.527344 444.390625 Z M 416.074219 415.503906 L 486.472656 377.074219 L 486.472656 444.390625 L 416.074219 482.835938 Z M 508.625 364.417969 L 609.925781 298.484375 L 683.292969 338.554688 L 683.292969 465.355469 L 602.746094 511.492188 L 508.625 445.214844 Z M 683.28125 245.988281 L 683.28125 313.300781 L 612.890625 274.875 L 612.890625 207.5625 Z M 612.890625 610.765625 L 612.890625 543.445312 L 683.292969 581.878906 L 683.292969 649.191406 Z M 761.394531 526.09375 L 694.367188 562.683594 L 627.332031 526.09375 L 624.496094 524.546875 L 694.359375 484.539062 L 764.222656 524.546875 Z M 694.367188 148.648438 L 764.230469 188.65625 L 761.394531 190.203125 L 694.367188 226.792969 L 627.332031 190.203125 L 624.496094 188.65625 Z M 591.128906 284.285156 L 497.183594 345.433594 L 416.074219 298.984375 L 416.074219 215.296875 L 490.367188 174.734375 L 590.738281 237.582031 L 590.738281 281.4375 C 590.742188 282.402344 590.875 283.355469 591.128906 284.285156 Z M 405 25.40625 L 474.855469 65.421875 L 408.0625 101.882812 L 405 103.554688 L 401.9375 101.882812 L 335.144531 65.414062 Z M 319.632812 174.75 L 393.925781 215.3125 L 393.925781 298.984375 L 312.816406 345.433594 L 218.871094 284.285156 C 219.125 283.355469 219.253906 282.402344 219.257812 281.4375 L 219.257812 237.582031 Z M 115.632812 148.648438 L 185.496094 188.65625 L 182.660156 190.203125 L 115.632812 226.792969 L 48.605469 190.203125 L 45.769531 188.65625 Z M 34.171875 207.5625 L 104.570312 245.992188 L 104.570312 313.300781 L 34.171875 274.875 Z M 34.171875 543.453125 L 104.570312 581.882812 L 104.570312 649.195312 L 34.171875 610.765625 Z M 126.71875 581.882812 L 197.121094 543.453125 L 197.121094 610.765625 L 126.71875 649.191406 Z M 218.644531 620.789062 C 219.039062 619.675781 219.253906 618.507812 219.273438 617.328125 L 219.273438 530.125 L 313.191406 463.984375 L 393.925781 508.054688 L 393.925781 596.433594 L 306.914062 646.25 L 306.84375 646.300781 L 306.761719 646.328125 C 306.28125 646.648438 305.824219 647.007812 305.402344 647.398438 C 305.117188 647.632812 304.769531 647.824219 304.535156 648.082031 C 304.101562 648.558594 303.714844 649.066406 303.371094 649.609375 C 303.1875 649.875 302.953125 650.097656 302.792969 650.375 C 302.324219 651.203125 301.957031 652.089844 301.710938 653.011719 C 301.625 653.335938 301.636719 653.683594 301.578125 654.011719 C 301.449219 654.617188 301.367188 655.234375 301.339844 655.851562 L 301.339844 675.886719 Z M 323.527344 696.519531 L 323.527344 674.515625 L 393.925781 712.945312 L 393.925781 780.257812 L 323.527344 741.835938 Z M 416.074219 780.257812 L 416.074219 712.953125 L 486.472656 674.519531 L 486.472656 741.839844 Z M 508.625 655.851562 C 508.59375 655.246094 508.515625 654.640625 508.382812 654.042969 C 508.324219 653.703125 508.335938 653.34375 508.25 653.003906 C 508.003906 652.082031 507.640625 651.195312 507.167969 650.367188 C 507.007812 650.082031 506.769531 649.855469 506.578125 649.589844 C 506.238281 649.054688 505.851562 648.550781 505.429688 648.082031 C 505.167969 647.816406 504.839844 647.632812 504.554688 647.390625 C 504.132812 647.003906 503.679688 646.648438 503.199219 646.328125 L 503.117188 646.300781 L 503.046875 646.25 L 416.074219 596.433594 L 416.074219 508.054688 L 496.808594 463.984375 L 590.742188 530.125 L 590.742188 617.332031 C 590.765625 618.515625 590.980469 619.683594 591.375 620.796875 L 508.640625 675.894531 Z M 705.425781 649.183594 L 705.425781 581.878906 L 775.828125 543.445312 L 775.828125 610.765625 Z M 705.425781 313.292969 L 705.425781 245.988281 L 775.828125 207.5625 L 775.828125 274.875 Z M 705.425781 313.292969 "/></g></svg>